<svg width="1500" height="200" viewBox="0 0 1500 200" fill="none" xmlns="http://www.w3.org/2000/svg">
<rect width="1500" height="200" fill="#99F9FF"/>
<rect width="1500" height="200" fill="#F7F7F7"/>
<g clip-path="url(#clip0_183_8367)">
<path d="M785.811 104.094H701.906V116.189H785.811V104.094Z" fill="#CEF4ED"/>
<path d="M786.189 116.189H690.189V128.284H786.189V116.189Z" fill="#CEF4ED"/>
<path d="M749.906 127.906H666V140H749.906V127.906Z" fill="#CEF4ED"/>
<path d="M726.094 92H714V104.094H726.094H738.189V92H726.094Z" fill="#CEF4ED"/>
<path d="M785.811 104.094H749.905V116.189H785.811V104.094Z" fill="white"/>
<path d="M810 116.189H774.094V128.284H810V116.189Z" fill="white"/>
<path d="M834.189 127.906H798.283V140H834.189V127.906Z" fill="white"/>
<path d="M762 92H726.094V104.094H762V92Z" fill="white"/>
<path d="M762 104.094H726.094V116.189H762V104.094Z" fill="#E7FFFC"/>
<path d="M774.094 116.189H738.189V128.284H774.094V116.189Z" fill="#E7FFFC"/>
<path d="M738.189 92H714V104.094H738.189V92Z" fill="#E7FFFC"/>
<path d="M797.906 127.906H762V140H797.906V127.906Z" fill="#E7FFFC"/>
</g>
<path d="M1449 87.4569H1335.77V95.5992H1449V87.4569Z" fill="#CEF4ED"/>
<path d="M1432.97 79.3146H1343.91V87.4568H1432.97V79.3146Z" fill="#CEF4ED"/>
<path d="M1376.23 63.2845H1368.09V71.1724H1376.23H1384.37V63.2845H1376.23Z" fill="#CEF4ED"/>
<path d="M1432.72 79.3146H1408.54V87.4568H1432.72V79.3146Z" fill="white"/>
<path d="M1449 87.4569H1424.83V95.5992H1449V87.4569Z" fill="white"/>
<path d="M1408.54 79.3146H1384.37V87.4568H1408.54V79.3146Z" fill="#E6FFFC"/>
<path d="M1400.4 71.1724H1376.23V79.3146H1400.4V71.1724Z" fill="#E6FFFC"/>
<path d="M1384.37 63.2845H1368.09V71.4268H1384.37V63.2845Z" fill="#E6FFFC"/>
<path d="M1424.57 87.4569H1400.4V95.5992H1424.57V87.4569Z" fill="#E6FFFC"/>
<path d="M1408.54 71.1724H1295.31V79.3146H1408.54V71.1724Z" fill="#CEF4ED"/>
<path d="M1392.51 63.2845H1303.46V71.4268H1392.51V63.2845Z" fill="#CEF4ED"/>
<path d="M1375.97 55.1422H1319.49V63.2845H1375.97V55.1422Z" fill="#CEF4ED"/>
<path d="M1327.63 87.4569H1263V95.5992H1327.63V87.4569Z" fill="#CEF4ED"/>
<path d="M1335.77 47H1327.63V55.1423H1335.77H1343.91V47H1335.77Z" fill="#CEF4ED"/>
<path d="M1376.23 55.1422H1352.06V63.2845H1376.23V55.1422Z" fill="white"/>
<path d="M1327.63 87.4569H1303.46V95.5992H1327.63V87.4569Z" fill="white"/>
<path d="M1392.26 63.2845H1368.09V71.4268H1392.26V63.2845Z" fill="white"/>
<path d="M1408.54 71.1724H1384.37V79.3146H1408.54V71.1724Z" fill="white"/>
<path d="M1359.94 47H1335.77V55.1423H1359.94V47Z" fill="white"/>
<path d="M1368.09 63.2845H1343.91V71.4268H1368.09V63.2845Z" fill="#E6FFFC"/>
<path d="M1359.94 55.1422H1335.77V63.2845H1359.94V55.1422Z" fill="#E6FFFC"/>
<path d="M1303.46 87.4569H1279.28V95.5992H1303.46V87.4569Z" fill="#E6FFFC"/>
<path d="M1311.6 71.1724H1303.46V79.3146H1311.6V71.1724Z" fill="#E6FFFC"/>
<path d="M1343.91 47H1327.63V55.1423H1343.91V47Z" fill="#E6FFFC"/>
<path d="M1384.12 71.1724H1359.94V79.3146H1384.12V71.1724Z" fill="#E6FFFC"/>
<path d="M1319.74 79.3146H1279.28V87.4568H1319.74V79.3146Z" fill="#CEF4ED"/>
<path d="M1319.49 79.3146H1295.31V87.4568H1319.49V79.3146Z" fill="white"/>
<path d="M1335.77 95.5991H1311.6V103.741H1335.77V95.5991Z" fill="white"/>
<path d="M1311.34 95.5991H1287.17V103.741H1311.34V95.5991Z" fill="#E6FFFC"/>
<path d="M1295.31 79.3146H1287.17V87.4568H1295.31V79.3146Z" fill="#E6FFFC"/>
<g clip-path="url(#clip1_183_8367)">
<path d="M300 108.157H51V126.063H300V108.157Z" fill="#CEF4ED"/>
<path d="M264.748 90.8114H68.9053V108.717H264.748V90.8114Z" fill="#CEF4ED"/>
<path d="M228.378 72.9058H104.157V90.8114H228.378V72.9058Z" fill="#CEF4ED"/>
<path d="M139.968 55H122.063V72.9056H139.968H157.874V55H139.968Z" fill="#CEF4ED"/>
<path d="M228.377 72.9058H175.22V90.8114H228.377V72.9058Z" fill="white"/>
<path d="M264.189 90.8114H211.031V108.717H264.189V90.8114Z" fill="white"/>
<path d="M300 108.157H246.843V126.063H300V108.157Z" fill="white"/>
<path d="M193.126 55H139.969V72.9056H193.126V55Z" fill="white"/>
<path d="M211.031 90.8114H157.874V108.717H211.031V90.8114Z" fill="#E6FFFC"/>
<path d="M193.126 72.9058H139.969V90.8114H193.126V72.9058Z" fill="#E6FFFC"/>
<path d="M157.874 55H122.063V72.9056H157.874V55Z" fill="#E6FFFC"/>
<path d="M246.283 108.157H193.126V126.063H246.283V108.157Z" fill="#E6FFFC"/>
</g>
<defs>
<clipPath id="clip0_183_8367">
<rect width="168.189" height="48" fill="white" transform="translate(666 92)"/>
</clipPath>
<clipPath id="clip1_183_8367">
<rect width="249" height="71.0629" fill="white" transform="translate(51 55)"/>
</clipPath>
</defs>
</svg>
