<svg width="83" height="10" viewBox="0 0 83 10" fill="none" xmlns="http://www.w3.org/2000/svg">
<path d="M1.23614 9.99993C1.78839 9.99993 2.23607 9.55224 2.23607 8.99998C2.23607 8.44775 1.78839 8.00006 1.23614 8.00006C0.68389 8.00006 0.236206 8.44775 0.236206 8.99998C0.236206 9.55224 0.68389 9.99993 1.23614 9.99993Z" fill="#1C1C1C"/>
<path d="M1.23614 6.00047C1.78839 6.00047 2.23607 5.55278 2.23607 5.00054C2.23607 4.4483 1.78839 4.00061 1.23614 4.00061C0.683891 4.00061 0.236206 4.4483 0.236206 5.00054C0.236206 5.55278 0.683891 6.00047 1.23614 6.00047Z" fill="#1C1C1C"/>
<path d="M1.23614 1.99993C1.78839 1.99993 2.23607 1.55223 2.23607 0.999989C2.23607 0.447745 1.78839 6.10352e-05 1.23614 6.10352e-05C0.683891 6.10352e-05 0.236206 0.447745 0.236206 0.999989C0.236206 1.55223 0.683891 1.99993 1.23614 1.99993Z" fill="#1C1C1C"/>
<path d="M5.23614 1.99993C5.78839 1.99993 6.23607 1.55223 6.23607 0.999989C6.23607 0.447745 5.78839 6.10352e-05 5.23614 6.10352e-05C4.68389 6.10352e-05 4.23621 0.447745 4.23621 0.999989C4.23621 1.55223 4.68389 1.99993 5.23614 1.99993Z" fill="#1C1C1C"/>
<path d="M9.73566 9.99993C10.2879 9.99993 10.7356 9.55224 10.7356 8.99999C10.7356 8.44775 10.2879 8.00006 9.73566 8.00006C9.18342 8.00006 8.73572 8.44775 8.73572 8.99999C8.73572 9.55224 9.18342 9.99993 9.73566 9.99993Z" fill="#1C1C1C"/>
<path d="M9.73566 6.00041C10.2879 6.00041 10.7356 5.55273 10.7356 5.00048C10.7356 4.44824 10.2879 4.00055 9.73566 4.00055C9.18342 4.00055 8.73572 4.44824 8.73572 5.00048C8.73572 5.55273 9.18342 6.00041 9.73566 6.00041Z" fill="#1C1C1C"/>
<path d="M9.73565 1.99993C10.2879 1.99993 10.7356 1.55223 10.7356 0.999989C10.7356 0.447745 10.2879 6.10352e-05 9.73565 6.10352e-05C9.1834 6.10352e-05 8.73572 0.447745 8.73572 0.999989C8.73572 1.55223 9.1834 1.99993 9.73565 1.99993Z" fill="#1C1C1C"/>
<path d="M14.7354 1.99993C15.2877 1.99993 15.7353 1.55223 15.7353 0.999989C15.7353 0.447745 15.2877 6.10352e-05 14.7354 6.10352e-05C14.1832 6.10352e-05 13.7355 0.447745 13.7355 0.999989C13.7355 1.55223 14.1832 1.99993 14.7354 1.99993Z" fill="#1C1C1C"/>
<path d="M14.7354 9.99993C15.2877 9.99993 15.7353 9.55223 15.7353 8.99999C15.7353 8.44776 15.2877 8.00006 14.7354 8.00006C14.1832 8.00006 13.7355 8.44776 13.7355 8.99999C13.7355 9.55223 14.1832 9.99993 14.7354 9.99993Z" fill="#1C1C1C"/>
<path fill-rule="evenodd" clip-rule="evenodd" d="M46.5176 9.38309C47.1294 9.79357 47.8419 9.99938 48.655 9.99938C49.3586 9.99938 49.9748 9.85285 50.505 9.56093C51.0441 9.269 51.4736 8.85292 51.7935 8.31493C52.1134 7.77581 52.3002 7.13716 52.355 6.39783L51.1906 6.24684C51.0989 7.12373 50.8394 7.79036 50.4099 8.2467C49.9804 8.70304 49.3955 8.93122 48.6561 8.93122C48.0622 8.93122 47.5466 8.77575 47.1081 8.46592C46.6697 8.14604 46.3319 7.68969 46.0937 7.09577C45.8655 6.50185 45.7514 5.80391 45.7514 4.99972C45.7514 4.19552 45.87 3.50206 46.1071 2.91821C46.3442 2.32429 46.6831 1.86794 47.1216 1.54805C47.56 1.22816 48.0712 1.06822 48.6561 1.06822C49.3597 1.06822 49.9256 1.2785 50.3551 1.69793C50.7846 2.11848 51.0676 2.7303 51.2052 3.53338L52.3293 3.34211C52.2376 2.66654 52.0273 2.0771 51.6984 1.5749C51.3696 1.07269 50.9401 0.684578 50.4099 0.410547C49.8887 0.136517 49.3037 6.10352e-05 48.655 6.10352e-05C47.8508 6.10352e-05 47.1428 0.210337 46.531 0.629772C45.9281 1.04026 45.4573 1.62523 45.1195 2.38357C44.7817 3.14079 44.6128 4.01321 44.6128 4.99972C44.6128 6.00412 44.7772 6.88549 45.106 7.64383C45.4438 8.3921 45.9147 8.97148 46.5176 9.38309Z" fill="#1C1C1C"/>
<path fill-rule="evenodd" clip-rule="evenodd" d="M62.993 9.99972C62.3353 9.99972 61.7504 9.83977 61.2392 9.51988C60.727 9.2 60.3299 8.74812 60.0469 8.16427C59.7639 7.5793 59.6219 6.9138 59.6219 6.16441C59.6219 5.41502 59.7639 4.74952 60.0469 4.16455C60.3299 3.57958 60.7281 3.1277 61.2392 2.80893C61.7504 2.48905 62.3353 2.3291 62.993 2.3291C63.5411 2.3291 64.0388 2.43871 64.4862 2.65794C64.9437 2.86821 65.3128 3.17356 65.5957 3.57622C65.8787 3.96881 66.0666 4.4341 66.1572 4.97322L65.1159 5.19244C65.0153 4.60747 64.7781 4.15112 64.4034 3.82229C64.0287 3.49345 63.559 3.32903 62.9919 3.32903C62.5445 3.32903 62.1463 3.44759 61.7996 3.68471C61.4529 3.92183 61.1833 4.25514 60.9909 4.68464C60.7985 5.11415 60.7035 5.6074 60.7035 6.16441C60.7035 6.72142 60.7997 7.21467 60.9909 7.64417C61.1833 8.07367 61.4517 8.40698 61.7996 8.6441C62.1463 8.88122 62.5445 8.99978 62.9919 8.99978C63.5579 8.99978 64.0287 8.83537 64.4034 8.50653C64.7781 8.17769 65.0153 7.72135 65.1159 7.13638L66.1572 7.3556C66.0655 7.89472 65.8787 8.36448 65.5957 8.76602C65.3128 9.15861 64.9426 9.46508 64.4862 9.6843C64.0388 9.89458 63.5411 9.99972 62.993 9.99972Z" fill="#1C1C1C"/>
<path fill-rule="evenodd" clip-rule="evenodd" d="M27.3875 9.67154C27.7532 9.83596 28.1782 9.91761 28.6625 9.91761C29.101 9.91761 29.5025 9.83036 29.8683 9.657C30.243 9.48363 30.5438 9.24651 30.7731 8.94452H30.8V9.7118H31.801V4.60365C31.801 4.11934 31.6959 3.70438 31.4856 3.35765C31.2843 3.00197 30.9834 2.72794 30.5807 2.53556C30.1882 2.3443 29.7217 2.24811 29.1826 2.24811C28.6804 2.24811 28.223 2.3443 27.8125 2.53556C27.4009 2.72682 27.0631 2.99638 26.798 3.34423C26.5329 3.69096 26.3596 4.10257 26.2768 4.57681L27.3595 4.78261C27.4602 4.2983 27.6704 3.91913 27.9903 3.64622C28.3102 3.36324 28.7073 3.2212 29.1826 3.2212C29.639 3.2212 30.0003 3.32186 30.2653 3.52207C30.5394 3.7234 30.6769 3.99184 30.6769 4.33074C30.6769 4.53207 30.6177 4.70543 30.4991 4.85084C30.3805 4.98729 30.1882 5.11145 29.9231 5.22106C29.6669 5.33067 29.3023 5.44476 28.827 5.56332C28.2151 5.70984 27.7219 5.88321 27.3472 6.08342C26.9814 6.28474 26.7119 6.53081 26.5385 6.82274C26.3652 7.10572 26.2779 7.45245 26.2779 7.86405C26.2779 8.28461 26.3741 8.64924 26.5654 8.96018C26.7566 9.26105 27.0307 9.49817 27.3875 9.67154ZM29.7587 8.69957C29.4567 8.84609 29.1189 8.91879 28.7442 8.91879C28.2878 8.91879 27.94 8.8226 27.7029 8.63134C27.4658 8.44008 27.3472 8.16157 27.3472 7.79583C27.3472 7.58555 27.4065 7.40324 27.525 7.24777C27.6436 7.0923 27.8315 6.95584 28.0865 6.83728C28.3516 6.71872 28.6939 6.60463 29.1144 6.49502C29.6077 6.35857 29.9779 6.22546 30.2239 6.09796C30.4711 5.9615 30.6311 5.80603 30.7038 5.63266H30.7306V7.26231C30.7306 7.5822 30.6434 7.86517 30.47 8.11124C30.3067 8.35731 30.0685 8.55305 29.7587 8.69957Z" fill="#1C1C1C"/>
<path fill-rule="evenodd" clip-rule="evenodd" d="M19.8701 9.82966H18.7348V0.124504H22.4683C24.0543 0.099897 25.2455 1.16135 25.2209 2.51248C25.2209 3.59295 24.6281 4.43181 23.8072 4.71591C24.7702 4.71591 25.0968 5.04922 25.0968 5.9373V9.78827H23.9615V6.15317C23.9615 5.56037 23.7703 5.36911 23.1775 5.36911H19.869V9.82966H19.8701ZM19.8701 1.16135V4.33898H22.3017C23.3385 4.33898 24.0857 3.64216 24.0857 2.68473C24.0857 1.71612 23.4313 1.16023 22.3017 1.16023H19.8701V1.16135Z" fill="#1C1C1C"/>
<path d="M68.413 0.0239258H67.3303V9.79395H68.413V0.0239258Z" fill="#1C1C1C"/>
<path d="M54.6207 2.52008H53.538V9.79363H54.6207V2.52008Z" fill="#1C1C1C"/>
<path fill-rule="evenodd" clip-rule="evenodd" d="M57.1545 2.40924H56.1266V9.7924H57.2093V5.437C57.2093 4.76143 57.31 4.27265 57.5113 3.97177C57.7216 3.66083 58.0415 3.50648 58.471 3.50648C58.5896 3.50648 58.7081 3.5199 58.8267 3.54787C58.9452 3.56576 59.0638 3.59372 59.1835 3.62951L59.4161 2.51997C59.151 2.44727 58.9095 2.41036 58.6902 2.41036C58.3435 2.41036 58.037 2.47411 57.7719 2.60162C57.5158 2.72913 57.3201 2.90809 57.1825 3.13626H57.1557V2.40924H57.1545Z" fill="#1C1C1C"/>
<path fill-rule="evenodd" clip-rule="evenodd" d="M34.1946 2.40924H33.1667V9.7924H34.2494V5.437C34.2494 4.76143 34.35 4.27265 34.5514 3.97177C34.7617 3.66083 35.0815 3.50648 35.511 3.50648C35.6296 3.50648 35.7482 3.5199 35.8667 3.54787C35.9853 3.56576 36.1038 3.59372 36.2235 3.62951L36.4562 2.51997C36.1911 2.44727 35.9495 2.41036 35.7303 2.41036C35.3835 2.41036 35.0771 2.47411 34.812 2.60162C34.5559 2.72913 34.3601 2.90809 34.2225 3.13626H34.1957V2.40924H34.1946Z" fill="#1C1C1C"/>
<path fill-rule="evenodd" clip-rule="evenodd" d="M76.1525 5.93182C76.1525 5.21934 76.016 4.59411 75.742 4.055C75.4769 3.50693 75.0977 3.08303 74.6045 2.78103C74.1202 2.48016 73.5542 2.32916 72.9055 2.32916C72.2478 2.32916 71.6629 2.48911 71.1517 2.809C70.6406 3.12888 70.2424 3.58075 69.9594 4.16461C69.6764 4.73951 69.5344 5.40613 69.5344 6.16447C69.5344 6.92281 69.6764 7.5939 69.9594 8.17775C70.2424 8.75266 70.635 9.20006 71.1383 9.51994C71.6494 9.83983 72.2389 9.99978 72.9066 9.99978C73.6101 9.99978 74.222 9.83983 74.7432 9.51994C75.2644 9.20006 75.6794 8.73029 75.9903 8.10953L75.1 7.57489C74.789 8.114 74.4691 8.49317 74.1403 8.71128C73.8115 8.92155 73.3909 9.02669 72.8798 9.02669C72.4503 9.02669 72.0666 8.9126 71.7288 8.68443C71.3911 8.45626 71.126 8.14979 70.9336 7.76615C70.7412 7.37356 70.6417 6.94406 70.6316 6.47877H76.1547V5.93182H76.1525ZM70.6573 5.61641C70.6573 5.21487 70.758 4.8357 70.9593 4.48002C71.1696 4.12434 71.4436 3.84024 71.7814 3.63109C72.1192 3.41186 72.4939 3.30225 72.9055 3.30225C73.316 3.30225 73.6817 3.40739 74.0016 3.61766C74.3305 3.81899 74.5866 4.09302 74.7689 4.43976C74.9512 4.78649 75.0519 5.17908 75.0709 5.61753H70.6573V5.61641Z" fill="#1C1C1C"/>
<path fill-rule="evenodd" clip-rule="evenodd" d="M43.299 5.93176C43.299 5.21928 43.1625 4.59405 42.8885 4.05493C42.6234 3.50687 42.2442 3.08296 41.751 2.78097C41.2667 2.4801 40.7007 2.3291 40.052 2.3291C39.3943 2.3291 38.8093 2.48905 38.2982 2.80893C37.787 3.12882 37.3889 3.58069 37.1059 4.16455C36.8229 4.73945 36.6808 5.40607 36.6808 6.16441C36.6808 6.92275 36.8229 7.59384 37.1059 8.17769C37.3889 8.7526 37.7814 9.2 38.2848 9.51988C38.7959 9.83977 39.3854 9.99972 40.0531 9.99972C40.7566 9.99972 41.3684 9.83977 41.8897 9.51988C42.4109 9.2 42.8258 8.73023 43.1368 8.10947L42.2465 7.57483C41.9355 8.11394 41.6156 8.49311 41.2868 8.71121C40.958 8.92149 40.5374 9.02663 40.0263 9.02663C39.5968 9.02663 39.2131 8.91254 38.8753 8.68437C38.5375 8.4562 38.2725 8.14973 38.0801 7.76609C37.8877 7.3735 37.7882 6.944 37.7781 6.4787H43.3012V5.93176H43.299ZM37.8027 5.61635C37.8027 5.21481 37.9034 4.83564 38.1047 4.47996C38.315 4.12428 38.589 3.84018 38.9268 3.63103C39.2646 3.4118 39.6393 3.30219 40.0509 3.30219C40.4613 3.30219 40.8271 3.40733 41.147 3.6176C41.4758 3.81893 41.732 4.09296 41.9143 4.43969C42.0966 4.78643 42.1972 5.17902 42.2163 5.61747H37.8027V5.61635Z" fill="#1C1C1C"/>
<path fill-rule="evenodd" clip-rule="evenodd" d="M78.4475 9.68367C78.914 9.89395 79.4575 9.99909 80.0783 9.99909C80.6174 9.99909 81.0883 9.90737 81.4898 9.72506C81.8914 9.54274 82.2023 9.28661 82.4215 8.95777C82.6497 8.62893 82.7638 8.25871 82.7638 7.84823C82.7638 7.47353 82.6766 7.15924 82.5032 6.9031C82.3298 6.63802 82.0468 6.4009 81.6531 6.19062C81.2605 5.9714 80.7214 5.75665 80.0358 5.54637C79.5705 5.39985 79.2092 5.27234 78.9531 5.16273C78.7059 5.04417 78.5281 4.92561 78.4185 4.80705C78.3178 4.68849 78.2675 4.54197 78.2675 4.3686C78.2675 4.17734 78.3267 4.00285 78.4453 3.8485C78.5728 3.69303 78.7417 3.57 78.952 3.47828C79.1623 3.37762 79.3994 3.32728 79.6645 3.32728C80.1577 3.32728 80.5548 3.44584 80.8568 3.68296C81.1576 3.91114 81.3724 4.25787 81.501 4.72428L82.5423 4.49163C82.4506 4.05318 82.2728 3.66954 82.0077 3.34071C81.7516 3.01187 81.4183 2.76133 81.0067 2.58684C80.6051 2.41348 80.1566 2.32623 79.6633 2.32623C79.207 2.32623 78.7864 2.42242 78.4028 2.61369C78.0281 2.796 77.7317 3.04766 77.5125 3.36755C77.3022 3.67849 77.1971 4.02522 77.1971 4.40886C77.1971 4.74665 77.2754 5.03858 77.4297 5.28576C77.5941 5.52288 77.8547 5.73763 78.2104 5.93001C78.5661 6.12128 79.0549 6.30918 79.6768 6.4915C80.2069 6.64697 80.6129 6.79237 80.8959 6.92994C81.1789 7.05745 81.3802 7.19503 81.4988 7.34043C81.6173 7.47689 81.6766 7.6469 81.6766 7.84711C81.6766 8.06633 81.6084 8.26766 81.4708 8.44998C81.3433 8.62334 81.1554 8.76092 80.9093 8.86046C80.6722 8.95218 80.3937 8.99692 80.0738 8.99692C79.4072 8.99692 78.9039 8.8504 78.5661 8.55847C78.2283 8.26654 78.0046 7.78671 77.895 7.12009L76.8403 7.31135C76.8951 7.87731 77.0595 8.36161 77.3335 8.76315C77.612 9.16805 77.9811 9.4734 78.4475 9.68367Z" fill="#1C1C1C"/>
<path d="M54.0526 1.60934C54.4233 1.60934 54.7237 1.30888 54.7237 0.938246C54.7237 0.56761 54.4233 0.267151 54.0526 0.267151C53.682 0.267151 53.3815 0.56761 53.3815 0.938246C53.3815 1.30888 53.682 1.60934 54.0526 1.60934Z" fill="#1C1C1C"/>
</svg>
    