<svg width="24" height="24" viewBox="0 0 24 24" fill="none" xmlns="http://www.w3.org/2000/svg">
<path d="M19.3751 5L13.0564 9.6875L14.2314 6.925L19.3751 5Z" fill="#E17726" stroke="#E17726" stroke-width="0.49375" stroke-linecap="round" stroke-linejoin="round"/>
<path d="M4.80005 5L11.0625 9.73125L9.9438 6.925L4.80005 5Z" fill="#E27625" stroke="#E27625" stroke-width="0.49375" stroke-linecap="round" stroke-linejoin="round"/>
<path d="M17.1002 15.8687L15.4189 18.4437L19.0189 19.4374L20.0502 15.9249L17.1002 15.8687Z" fill="#E27625" stroke="#E27625" stroke-width="0.49375" stroke-linecap="round" stroke-linejoin="round"/>
<path d="M4.13135 15.9249L5.15635 19.4374L8.7501 18.4437L7.0751 15.8687L4.13135 15.9249Z" fill="#E27625" stroke="#E27625" stroke-width="0.49375" stroke-linecap="round" stroke-linejoin="round"/>
<path d="M8.5564 11.5187L7.5564 13.0312L11.1189 13.1937L11.0001 9.34998L8.5564 11.5187Z" fill="#E27625" stroke="#E27625" stroke-width="0.49375" stroke-linecap="round" stroke-linejoin="round"/>
<path d="M15.6189 11.5187L13.1376 9.30615L13.0564 13.1937L16.6189 13.0312L15.6189 11.5187Z" fill="#E27625" stroke="#E27625" stroke-width="0.49375" stroke-linecap="round" stroke-linejoin="round"/>
<path d="M8.75 18.4439L10.9062 17.4002L9.05 15.9502L8.75 18.4439Z" fill="#E27625" stroke="#E27625" stroke-width="0.49375" stroke-linecap="round" stroke-linejoin="round"/>
<path d="M13.269 17.4002L15.419 18.4439L15.1253 15.9502L13.269 17.4002Z" fill="#E27625" stroke="#E27625" stroke-width="0.49375" stroke-linecap="round" stroke-linejoin="round"/>
<path d="M15.419 18.4437L13.269 17.3999L13.444 18.7999L13.4253 19.3937L15.419 18.4437Z" fill="#D5BFB2" stroke="#D5BFB2" stroke-width="0.49375" stroke-linecap="round" stroke-linejoin="round"/>
<path d="M8.75024 18.4437L10.7502 19.3937L10.7377 18.7999L10.9065 17.3999L8.75024 18.4437Z" fill="#D5BFB2" stroke="#D5BFB2" stroke-width="0.49375" stroke-linecap="round" stroke-linejoin="round"/>
<path d="M10.7877 15.0252L9.00024 14.5002L10.2627 13.9189L10.7877 15.0252Z" fill="#233447" stroke="#233447" stroke-width="0.49375" stroke-linecap="round" stroke-linejoin="round"/>
<path d="M13.3875 15.0252L13.9125 13.9189L15.1812 14.5002L13.3875 15.0252Z" fill="#233447" stroke="#233447" stroke-width="0.49375" stroke-linecap="round" stroke-linejoin="round"/>
<path d="M8.7502 18.4437L9.0627 15.8687L7.0752 15.9249L8.7502 18.4437Z" fill="#CC6228" stroke="#CC6228" stroke-width="0.49375" stroke-linecap="round" stroke-linejoin="round"/>
<path d="M15.1125 15.8687L15.4188 18.4437L17.1 15.9249L15.1125 15.8687Z" fill="#CC6228" stroke="#CC6228" stroke-width="0.49375" stroke-linecap="round" stroke-linejoin="round"/>
<path d="M16.6189 13.0312L13.0564 13.1938L13.3876 15.025L13.9126 13.9188L15.1814 14.5L16.6189 13.0312Z" fill="#CC6228" stroke="#CC6228" stroke-width="0.49375" stroke-linecap="round" stroke-linejoin="round"/>
<path d="M9.00015 14.5L10.2626 13.9188L10.7876 15.025L11.1189 13.1938L7.5564 13.0312L9.00015 14.5Z" fill="#CC6228" stroke="#CC6228" stroke-width="0.49375" stroke-linecap="round" stroke-linejoin="round"/>
<path d="M7.5564 13.0312L9.05015 15.95L9.00015 14.5L7.5564 13.0312Z" fill="#E27525" stroke="#E27525" stroke-width="0.49375" stroke-linecap="round" stroke-linejoin="round"/>
<path d="M15.1815 14.5L15.1252 15.95L16.619 13.0312L15.1815 14.5Z" fill="#E27525" stroke="#E27525" stroke-width="0.49375" stroke-linecap="round" stroke-linejoin="round"/>
<path d="M11.1191 13.1938L10.7878 15.0251L11.2066 17.1876L11.3003 14.3376L11.1191 13.1938Z" fill="#E27525" stroke="#E27525" stroke-width="0.49375" stroke-linecap="round" stroke-linejoin="round"/>
<path d="M13.0566 13.1938L12.8816 14.3313L12.9691 17.1876L13.3878 15.0251L13.0566 13.1938Z" fill="#E27525" stroke="#E27525" stroke-width="0.49375" stroke-linecap="round" stroke-linejoin="round"/>
<path d="M13.3877 15.025L12.969 17.1875L13.269 17.4L15.1252 15.95L15.1815 14.5L13.3877 15.025Z" fill="#F5841F" stroke="#F5841F" stroke-width="0.49375" stroke-linecap="round" stroke-linejoin="round"/>
<path d="M9.00024 14.5L9.05024 15.95L10.9065 17.4L11.2065 17.1875L10.7877 15.025L9.00024 14.5Z" fill="#F5841F" stroke="#F5841F" stroke-width="0.49375" stroke-linecap="round" stroke-linejoin="round"/>
<path d="M13.4252 19.3938L13.444 18.8001L13.2815 18.6626H10.894L10.7377 18.8001L10.7502 19.3938L8.75024 18.4438L9.45024 19.0188L10.869 20.0001H13.3002L14.7252 19.0188L15.419 18.4438L13.4252 19.3938Z" fill="#C0AC9D" stroke="#C0AC9D" stroke-width="0.49375" stroke-linecap="round" stroke-linejoin="round"/>
<path d="M13.269 17.4L12.969 17.1875H11.2065L10.9065 17.4L10.7378 18.8L10.894 18.6625H13.2815L13.444 18.8L13.269 17.4Z" fill="#161616" stroke="#161616" stroke-width="0.49375" stroke-linecap="round" stroke-linejoin="round"/>
<path d="M19.6438 9.99375L20.175 7.40625L19.375 5L13.2688 9.53125L15.6188 11.5187L18.9375 12.4875L19.6688 11.6312L19.35 11.4L19.8563 10.9375L19.4688 10.6375L19.975 10.25L19.6438 9.99375Z" fill="#763E1A" stroke="#763E1A" stroke-width="0.49375" stroke-linecap="round" stroke-linejoin="round"/>
<path d="M4 7.40625L4.5375 9.99375L4.19375 10.25L4.70625 10.6375L4.31875 10.9375L4.825 11.4L4.50625 11.6312L5.2375 12.4875L8.55625 11.5187L10.9062 9.53125L4.8 5L4 7.40625Z" fill="#763E1A" stroke="#763E1A" stroke-width="0.49375" stroke-linecap="round" stroke-linejoin="round"/>
<path d="M18.9375 12.4873L15.6187 11.5186L16.6187 13.0311L15.125 15.9498L17.1 15.9248H20.05L18.9375 12.4873Z" fill="#F5841F" stroke="#F5841F" stroke-width="0.49375" stroke-linecap="round" stroke-linejoin="round"/>
<path d="M8.55635 11.5186L5.2376 12.4873L4.13135 15.9248H7.0751L9.0501 15.9498L7.55635 13.0311L8.55635 11.5186Z" fill="#F5841F" stroke="#F5841F" stroke-width="0.49375" stroke-linecap="round" stroke-linejoin="round"/>
<path d="M13.0563 13.1936L13.2688 9.53105L14.2313 6.9248H9.94385L10.9063 9.53105L11.1188 13.1936L11.2001 14.3436L11.2063 17.1873H12.9688L12.9751 14.3436L13.0563 13.1936Z" fill="#F5841F" stroke="#F5841F" stroke-width="0.49375" stroke-linecap="round" stroke-linejoin="round"/>
</svg>
