<svg width="18" height="18" viewBox="0 0 18 18" fill="none" xmlns="http://www.w3.org/2000/svg">
<path d="M17.3629 3.83824C16.7515 4.11618 16.0924 4.29882 15.4094 4.38618C16.1082 3.96529 16.6482 3.29824 16.9024 2.49618C16.2432 2.89324 15.5126 3.17118 14.7424 3.33C14.115 2.64706 13.2335 2.25 12.2329 2.25C10.3668 2.25 8.84206 3.77471 8.84206 5.65676C8.84206 5.92676 8.87382 6.18882 8.92941 6.435C6.10235 6.29206 3.585 4.93412 1.90941 2.87735C1.61559 3.37765 1.44882 3.96529 1.44882 4.58471C1.44882 5.76794 2.04441 6.81618 2.96559 7.41176C2.40176 7.41176 1.87765 7.25294 1.41706 7.01471C1.41706 7.01471 1.41706 7.01471 1.41706 7.03853C1.41706 8.69029 2.59235 10.0721 4.14882 10.3818C3.86294 10.4612 3.56118 10.5009 3.25147 10.5009C3.03706 10.5009 2.82265 10.4771 2.61618 10.4374C3.045 11.7794 4.29176 12.78 5.79265 12.8038C4.63324 13.725 3.16412 14.265 1.56 14.265C1.29 14.265 1.02 14.2491 0.75 14.2174C2.25882 15.1862 4.05353 15.75 5.97529 15.75C12.2329 15.75 15.6715 10.5565 15.6715 6.05382C15.6715 5.90294 15.6715 5.76 15.6635 5.60912C16.3306 5.13265 16.9024 4.52912 17.3629 3.83824Z" fill="white"/>
</svg>
